<svg xmlns="http://www.w3.org/2000/svg" width="100" height="100" viewBox="0 0 24 24">
  <!-- Corpo do carrinho -->
  <path d="M21.5,8H19V5c0-2.2-1.8-4-4-4h-6C6.8,1,5,2.8,5,5v3H2.5C1.7,8,1,8.7,1,9.5v11c0,0.8,0.7,1.5,1.5,1.5h17c0.8,0,1.5-0.7,1.5-1.5v-11
    C23,8.7,22.3,8,21.5,8z M7,5c0-1.1,0.9-2,2-2h6c1.1,0,2,0.9,2,2v3H7V5z M20.5,20c0,0.3-0.2,0.5-0.5,0.5h-17C2.2,20.5,2,20.3,2,20v-10h18
    V20z"/>
  <!-- Rodas -->
  <circle cx="6.5" cy="18.5" r="2" fill="black" />
  <circle cx="17.5" cy="18.5" r="2" fill="black" />
</svg>
